<?xml version="1.0" standalone="no"?>
<!DOCTYPE svg PUBLIC "-//W3C//DTD SVG 20010904//EN"
 "http://www.w3.org/TR/2001/REC-SVG-20010904/DTD/svg10.dtd">
<svg version="1.0" xmlns="http://www.w3.org/2000/svg"
 width="468.000000pt" height="111.000000pt" viewBox="0 0 468.000000 111.000000"
 preserveAspectRatio="xMidYMid meet">

<g transform="translate(0.000000,111.000000) scale(0.100000,-0.100000)"
fill="#000000" stroke="none">
<path d="M485 1058 c-43 -25 -44 -32 -45 -310 l0 -267 26 -20 c22 -17 41 -21
110 -21 l84 0 0 30 0 30 -80 0 -80 0 0 244 c0 194 3 246 14 255 9 8 94 11 287
9 l274 -3 3 -252 2 -253 -80 0 -80 0 0 -30 0 -30 80 0 c89 0 123 11 139 47 7
15 11 109 11 264 0 267 -4 288 -61 308 -45 15 -577 15 -604 -1z"/>
<path d="M1550 555 c0 -337 3 -515 10 -515 7 0 10 178 10 515 0 337 -3 515
-10 515 -7 0 -10 -178 -10 -515z"/>
<path d="M3337 984 c-4 -4 -7 -27 -7 -51 0 -37 3 -43 21 -43 18 0 20 5 17 47
-3 44 -15 62 -31 47z"/>
<path d="M1908 805 c-30 -17 -40 -40 -40 -92 0 -49 29 -75 133 -118 83 -34 89
-39 100 -74 9 -30 8 -44 -2 -67 -17 -35 -41 -42 -146 -43 -67 -1 -83 -4 -83
-16 0 -12 17 -15 94 -15 144 0 175 19 176 103 0 78 -17 100 -112 137 -123 48
-155 94 -103 145 22 23 32 25 110 25 69 0 85 3 85 15 0 21 -173 21 -212 0z"/>
<path d="M2308 805 c-46 -25 -61 -85 -56 -227 5 -183 21 -198 205 -198 94 0
104 2 101 18 -3 15 -17 17 -103 19 -55 2 -109 5 -121 8 -28 6 -44 45 -44 105
l0 49 138 3 137 3 0 76 c0 127 -32 159 -157 159 -44 -1 -84 -7 -100 -15z m181
-30 c33 -16 41 -39 41 -112 l0 -53 -120 0 -120 0 1 58 c1 70 8 90 40 108 32
18 123 18 158 -1z"/>
<path d="M2697 813 c-4 -3 -7 -102 -7 -220 0 -206 1 -213 20 -213 19 0 20 7
20 164 0 91 4 176 10 190 11 30 57 56 100 56 20 0 30 5 30 15 0 23 -72 20
-103 -5 -14 -11 -28 -20 -31 -20 -3 0 -6 9 -6 20 0 19 -20 27 -33 13z"/>
<path d="M2920 815 c0 -4 30 -103 67 -221 65 -209 68 -215 92 -212 24 3 30 16
93 218 37 118 68 216 68 218 0 1 -8 2 -19 2 -15 0 -28 -33 -76 -195 -32 -107
-62 -195 -66 -195 -4 0 -17 33 -29 73 -83 275 -96 312 -113 315 -9 2 -17 0
-17 -3z"/>
<path d="M3337 813 c-4 -3 -7 -102 -7 -220 0 -206 1 -213 20 -213 19 0 20 7
20 220 0 177 -3 220 -13 220 -8 0 -17 -3 -20 -7z"/>
<path d="M3517 813 c-4 -3 -7 -132 -7 -285 0 -271 0 -278 20 -278 18 0 20 7
20 85 l0 84 35 -20 c29 -18 48 -21 106 -17 65 3 74 6 100 36 l29 32 0 150 0
150 -29 32 c-26 30 -35 33 -100 36 -58 4 -77 1 -106 -17 -34 -20 -35 -20 -35
-1 0 19 -20 27 -33 13z m246 -51 c21 -21 22 -31 22 -161 0 -176 -3 -181 -113
-181 -64 0 -79 3 -99 22 -22 20 -23 28 -23 158 0 129 1 138 23 157 32 29 45
33 110 30 44 -3 63 -9 80 -25z"/>
<path d="M3957 813 c-4 -3 -7 -102 -7 -220 0 -206 1 -213 20 -213 19 0 20 7
20 174 0 168 1 176 23 201 17 20 35 28 70 32 31 4 47 10 47 19 0 22 -73 18
-103 -6 -14 -11 -28 -20 -31 -20 -3 0 -6 9 -6 20 0 19 -20 27 -33 13z"/>
<path d="M4268 803 c-41 -26 -51 -59 -56 -178 -5 -126 6 -181 44 -216 22 -20
37 -24 103 -27 143 -7 171 27 171 210 0 141 -11 183 -53 208 -42 26 -169 28
-209 3z m204 -43 c15 -19 18 -43 18 -161 0 -176 -2 -179 -119 -179 -74 0 -81
2 -100 26 -19 24 -21 40 -21 153 0 173 16 195 140 187 51 -3 68 -8 82 -26z"/>
<path d="M139 714 c-24 -25 -24 -28 -27 -257 -3 -254 0 -289 29 -318 18 -18
35 -19 327 -19 l309 0 21 23 c21 23 22 30 22 286 l0 262 -25 24 c-22 23 -32
25 -110 25 l-85 0 0 -30 0 -29 78 -3 77 -3 3 -247 2 -248 -290 0 -290 0 0 250
0 250 80 0 80 0 0 30 0 30 -88 0 c-82 0 -90 -2 -113 -26z"/>
</g>
</svg>
