<svg width="102" height="54" viewBox="0 0 102 54" fill="none" xmlns="http://www.w3.org/2000/svg">
<path d="M10.4595 33.1624C10.4595 34.3647 10.3165 35.4137 10.0294 36.3263C9.74223 37.2389 9.36723 38.0282 8.90569 38.6943C8.44283 39.3604 7.92622 39.9072 7.35453 40.3281C6.78285 40.749 6.22166 41.0361 5.67357 41.1804C4.17094 41.5764 2.67223 41.992 1.17746 42.4273C0.87195 42.5165 0.59922 42.4011 0.360581 42.072C0.119319 41.7429 0 41.3207 0 40.8119V1.69613C0 1.15198 0.119319 0.712729 0.359269 0.383617C0.597908 0.055816 0.870638 -0.060881 1.17615 0.0295919C2.67092 0.467534 4.16962 0.885807 5.67226 1.2831C6.22034 1.42865 6.78154 1.71711 7.35322 2.13801C7.92491 2.56021 8.44152 3.10698 8.90438 3.77308C9.36723 4.44048 9.74092 5.23769 10.0281 6.16602C10.3152 7.09566 10.4582 8.13676 10.4582 9.30635C10.4582 11.8199 10.4582 14.3335 10.4582 16.8471C10.4582 18.5844 9.85106 19.9336 8.63951 20.9656C9.84975 21.9109 10.4582 23.268 10.4582 25.0985C10.4582 27.7864 10.4582 30.4731 10.4582 33.1611L10.4595 33.1624ZM6.26624 10.097C6.26624 9.49648 6.17839 9.0664 6.00269 8.80285C5.82698 8.54061 5.59621 8.38195 5.31168 8.33344C5.03764 8.28623 4.7636 8.23903 4.48956 8.19052V17.4135C4.7636 17.4279 5.03764 17.4424 5.31168 17.4555C5.94761 17.4869 6.26624 17.0018 6.26624 16.0027V10.097ZM6.26624 26.0609C6.26624 25.5613 6.17839 25.1824 6.00269 24.9228C5.82698 24.6632 5.59621 24.5386 5.31168 24.5504C5.03764 24.5622 4.7636 24.574 4.48956 24.5858V34.3726C4.7636 34.3241 5.03764 34.2769 5.31168 34.2297C5.59621 34.1812 5.82698 34.0068 6.00269 33.7105C6.17839 33.4141 6.26624 33.0168 6.26624 32.5159V26.0609Z" fill="white"/>
<path d="M23.8817 35.7704C23.9932 36.1912 23.9092 36.582 23.6313 36.9517C23.352 37.3215 23.0334 37.5352 22.6767 37.5929C22.008 37.7004 21.338 37.8106 20.6706 37.926C20.4044 37.9719 20.1645 37.9299 19.952 37.7962C19.7396 37.6624 19.6019 37.4303 19.5351 37.0999C19.2676 35.7782 19.1352 34.3949 19.1352 32.9657V25.8472C19.1352 25.4761 19.046 25.1653 18.8677 24.9149C18.6894 24.6645 18.4114 24.5438 18.0337 24.5569C17.7781 24.5661 17.5224 24.5753 17.2667 24.5845C17.2667 28.7122 17.2667 32.8398 17.2667 36.9688C17.2667 37.3779 17.1448 37.7634 16.9009 38.1318C16.657 38.5003 16.3685 38.7192 16.0355 38.7848C15.3248 38.9264 14.6168 39.072 13.9074 39.2227C13.598 39.2883 13.3213 39.1821 13.0774 38.8963C12.8335 38.6117 12.7129 38.2511 12.7129 37.8198V4.69616C12.7129 4.23462 12.8335 3.85961 13.0774 3.57508C13.32 3.29055 13.5966 3.18303 13.9074 3.24859C15.4245 3.57246 16.9441 3.87535 18.4678 4.15857C19.0237 4.26215 19.6019 4.48899 20.2038 4.83253C20.8043 5.17606 21.3393 5.62712 21.8074 6.18438C22.2755 6.74164 22.6715 7.41822 22.994 8.21543C23.3179 9.01264 23.4792 9.91082 23.4792 10.9231C23.4792 13.358 23.4792 15.7916 23.4792 18.2265C23.4792 19.0197 23.3061 19.7055 22.9599 20.2942C22.6138 20.8816 22.1286 21.3851 21.5045 21.806H21.5373C22.1391 22.2204 22.6361 22.72 23.0255 23.3021C23.4162 23.8856 23.6116 24.5688 23.6116 25.3607V31.9993C23.6116 32.71 23.6339 33.3774 23.6785 33.9989C23.7231 34.6217 23.7899 35.2131 23.8791 35.773L23.8817 35.7704ZM19.067 11.7334C19.067 11.2181 18.9778 10.8523 18.8008 10.6307C18.6225 10.4091 18.3891 10.2806 18.1006 10.2465C17.8226 10.2124 17.5447 10.1796 17.2667 10.1442C17.2667 13.0616 17.2667 15.9791 17.2667 18.8965C17.5447 18.9044 17.8226 18.9109 18.1006 18.9188C18.7457 18.9345 19.0683 18.4992 19.0683 17.6128V11.7347L19.067 11.7334Z" fill="white"/>
<path d="M37.0281 30.1571C37.0281 30.8743 36.8812 31.6086 36.5875 32.3691C36.2938 33.1296 35.8886 33.8272 35.3707 34.4644C34.8528 35.103 34.2549 35.6366 33.5796 36.0667C32.9043 36.4968 32.1609 36.759 31.3519 36.8508C30.5415 36.9413 29.7994 36.8442 29.1254 36.5492C28.4515 36.2542 27.8614 35.8215 27.3566 35.2472C26.8518 34.6729 26.448 34.0015 26.1451 33.2319C25.8422 32.4635 25.6914 31.686 25.6914 30.9084V11.5734C25.6914 10.7959 25.8422 10.0183 26.1451 9.24997C26.448 8.48161 26.8518 7.81683 27.3566 7.25563C27.8614 6.69575 28.4515 6.27616 29.1254 5.99294C29.7994 5.70972 30.5415 5.62056 31.3519 5.71103C32.1609 5.80151 32.9043 6.0585 33.5796 6.47547C34.2549 6.89374 34.8528 7.41429 35.3707 8.03973C35.8886 8.66517 36.2951 9.35618 36.5875 10.1167C36.8812 10.8772 37.0281 11.6128 37.0281 12.3287C37.0281 18.271 37.0281 24.2121 37.0281 30.1545V30.1571ZM32.4454 11.8907C32.4454 11.5852 32.3444 11.3492 32.1425 11.1827C31.9406 11.0162 31.6705 10.9191 31.3348 10.8942C31.0214 10.8706 30.7631 10.9283 30.5612 11.0673C30.3593 11.2063 30.2583 11.4318 30.2583 11.7426V30.8206C30.2583 31.1051 30.3593 31.3175 30.5612 31.4578C30.7631 31.5968 31.0201 31.6545 31.3348 31.6309C31.6718 31.606 31.9406 31.5103 32.1425 31.3424C32.3444 31.1759 32.4454 30.9517 32.4454 30.6724C32.4454 24.4127 32.4454 18.1517 32.4454 11.892V11.8907Z" fill="white"/>
<path d="M50.4711 29.845C50.4711 30.536 50.3243 31.2388 50.0305 31.9547C49.7368 32.6707 49.3291 33.3158 48.8098 33.8927C48.2906 34.4696 47.6914 34.9364 47.0135 35.2957C46.3356 35.655 45.5895 35.849 44.7766 35.8752C43.9636 35.9028 43.2175 35.7585 42.5396 35.4399C41.8618 35.1213 41.2691 34.6834 40.7617 34.1261C40.2542 33.5688 39.8477 32.9316 39.5422 32.2131C39.238 31.4945 39.0859 30.7799 39.0859 30.0705V12.4205C39.0859 11.7111 39.238 10.9952 39.5422 10.2779C39.8477 9.55941 40.2529 8.92872 40.7617 8.38326C41.2691 7.8378 41.8618 7.41297 42.5396 7.10484C43.2175 6.79801 43.9636 6.66034 44.7766 6.68787C45.5895 6.71541 46.3356 6.9016 47.0135 7.24907C47.6914 7.59785 48.2906 8.05283 48.8098 8.61665C49.3291 9.18178 49.7368 9.82034 50.0305 10.5363C50.3243 11.2522 50.4711 11.955 50.4711 12.646V29.845ZM45.874 12.4323C45.874 12.1438 45.7731 11.9261 45.5698 11.7793C45.3666 11.6324 45.0965 11.5537 44.7595 11.5459C44.4435 11.5393 44.1852 11.6049 43.982 11.7439C43.7787 11.8829 43.6778 12.0979 43.6778 12.3864V30.1754C43.6778 30.4416 43.7787 30.6435 43.982 30.7825C44.1839 30.9215 44.4435 30.9871 44.7595 30.9805C45.0978 30.9727 45.3666 30.8953 45.5698 30.7484C45.7731 30.6003 45.874 30.3944 45.874 30.1309V12.4323Z" fill="white"/>
<path d="M64.7922 34.2533C64.8145 34.3542 64.8249 34.4788 64.8263 34.6283C64.8263 34.9758 64.7135 35.2773 64.4893 35.533C64.2638 35.7887 63.9727 35.9015 63.6121 35.8739C62.9368 35.8241 62.2629 35.7769 61.5876 35.7349C61.2729 35.7153 61.0028 35.596 60.7773 35.3757C60.553 35.1567 60.4167 34.8879 60.3721 34.5693C59.7873 31.404 59.2012 28.2624 58.6164 25.1404C58.5259 25.1404 58.4368 25.1378 58.3463 25.1365C58.0198 26.3507 57.6933 27.5622 57.3668 28.7711V34.2205C57.3668 34.5575 57.2488 34.8538 57.0154 35.1095C56.7807 35.3665 56.4844 35.4871 56.1264 35.4753C55.4 35.4517 54.6723 35.4334 53.9459 35.4189C53.6325 35.4124 53.3532 35.2773 53.108 35.0112C52.8615 34.745 52.7383 34.446 52.7383 34.1117C52.7383 25.5456 52.7383 16.9808 52.7383 8.41473C52.7383 8.05677 52.8615 7.74601 53.108 7.47853C53.3545 7.21235 53.6338 7.07599 53.9459 7.07074C54.6723 7.05632 55.4 7.03796 56.1264 7.01436C56.4844 7.00256 56.7807 7.1245 57.0154 7.38019C57.2488 7.63718 57.3668 7.94532 57.3668 8.3059V19.855C57.4678 19.855 57.5701 19.855 57.671 19.855C58.008 17.8554 58.3856 15.8728 58.8026 13.9047C59.2182 11.9366 59.63 9.93703 60.0351 7.90205C60.102 7.58343 60.2541 7.32118 60.4914 7.1127C60.7274 6.90553 60.9805 6.79277 61.2506 6.77572C61.8577 6.73901 62.4661 6.69836 63.0732 6.65509C63.4325 6.62887 63.7248 6.7495 63.9504 7.01567C64.1746 7.28316 64.2874 7.58998 64.2874 7.93614C64.2874 8.0843 64.2874 8.20887 64.2874 8.30721C63.3879 12.2802 62.4884 16.1888 61.5876 20.053C62.6562 24.7117 63.7249 29.4359 64.7922 34.252V34.2533Z" fill="white"/>
<path d="M76.0222 35.7835C76.0222 36.1611 75.9042 36.4823 75.6695 36.7459C75.4348 37.0094 75.1385 37.113 74.7805 37.0632C72.5082 36.7472 70.2293 36.4758 67.9478 36.2503C67.6358 36.2188 67.3578 36.0536 67.1126 35.7546C66.8674 35.4557 66.7441 35.1318 66.7441 34.7804V7.74602C66.7441 7.3697 66.8661 7.03272 67.1126 6.73377C67.3578 6.43482 67.6358 6.26829 67.9478 6.23682C68.6716 6.16471 69.3954 6.08735 70.1192 6.00605C70.4758 5.96541 70.7708 6.07292 71.0042 6.33123C71.2363 6.58954 71.3543 6.9134 71.3543 7.30152V31.1785C72.4977 31.2664 73.6398 31.3608 74.7792 31.4631C75.1371 31.4945 75.4335 31.6624 75.6682 31.9679C75.9029 32.2734 76.0209 32.6431 76.0209 33.0745C76.0209 33.9779 76.0209 34.8814 76.0209 35.7848L76.0222 35.7835Z" fill="white"/>
<path d="M85.973 3.48592C86.3061 3.41773 86.5932 3.52263 86.8371 3.80454C87.081 4.08776 87.2029 4.44309 87.2029 4.86792C87.2029 4.98987 87.1807 5.16163 87.1361 5.3806C85.9403 11.7176 84.7431 17.7846 83.5434 23.6181V36.9347C83.5434 37.3425 83.4228 37.6847 83.1789 37.9587C82.9363 38.2341 82.6387 38.3351 82.2859 38.2708C81.6566 38.1554 81.0272 38.044 80.3978 37.9351C80.0215 37.8709 79.7225 37.6663 79.5023 37.3241C79.2807 36.9819 79.1705 36.6174 79.1705 36.228V23.5119C77.9996 17.8842 76.8274 12.4559 75.6539 7.19006C75.6316 7.08517 75.6211 6.95274 75.6211 6.79146C75.6211 6.41514 75.7325 6.0585 75.9568 5.71627C76.1797 5.37536 76.4708 5.17606 76.8287 5.12099C77.4201 5.03182 78.0114 4.93873 78.6028 4.84301C78.8925 4.79581 79.1482 4.87186 79.3698 5.07247C79.5914 5.27309 79.7343 5.53664 79.8025 5.86182C80.3558 9.06246 80.9079 12.3156 81.4599 15.6263C81.5372 15.6211 81.6146 15.6172 81.692 15.6119C82.1889 12.2434 82.6859 8.82251 83.1815 5.34389C83.2248 4.95971 83.3637 4.62273 83.5958 4.33164C83.8279 4.04055 84.0888 3.86485 84.3773 3.80847C84.9097 3.70358 85.442 3.59606 85.9744 3.48592H85.973Z" fill="white"/>
<path d="M101.011 40.8119C101.011 41.3207 100.892 41.7416 100.652 42.0694C100.412 42.3985 100.117 42.5073 99.7694 42.405C99.1689 42.2306 98.5684 42.0589 97.9665 41.891C97.682 41.8111 97.4421 41.6236 97.2441 41.3285C97.0474 41.0348 96.894 40.6677 96.7852 40.2284C95.5474 33.4862 94.307 27.0771 93.064 20.9629C92.9761 20.9629 92.8883 20.9629 92.8004 20.9629V38.773C92.8004 39.2293 92.6785 39.6082 92.4372 39.9059C92.1946 40.2048 91.9088 40.311 91.5784 40.2324C91.1378 40.1262 90.6959 40.0226 90.2554 39.9203C89.9459 39.8482 89.6706 39.6135 89.428 39.2162C89.1841 38.8202 89.0635 38.4072 89.0635 37.9719V4.54275C89.0635 4.07727 89.1841 3.64982 89.428 3.25121C89.6706 2.85523 89.9459 2.6179 90.2554 2.54579C90.9175 2.39238 91.5797 2.23372 92.2405 2.07244C92.5264 2.00295 92.7689 2.06327 92.9669 2.25995C93.1649 2.45531 93.3078 2.75689 93.3957 3.16205C94.6059 9.15556 95.8122 15.4323 97.0172 22.0289C97.1051 22.0289 97.1929 22.0303 97.2795 22.0316V2.67429C97.2795 2.15636 97.3949 1.67908 97.6243 1.2359C97.8538 0.79271 98.1331 0.521291 98.4609 0.428196C98.8975 0.303631 99.3354 0.177756 99.7708 0.0505694C100.12 -0.0517044 100.413 0.0584366 100.653 0.386237C100.893 0.715349 101.012 1.15329 101.012 1.69875V40.8119H101.011Z" fill="white"/>
<path d="M33.1014 44.2591C33.1014 44.3967 33.0529 44.5134 32.9571 44.6105C32.8614 44.7062 32.7395 44.7547 32.5926 44.7547H31.1752V47.4374H32.097C32.2438 47.4374 32.3645 47.4886 32.4615 47.5882C32.5585 47.6892 32.6057 47.8124 32.6057 47.9593V48.8129C32.6057 48.9414 32.5585 49.0554 32.4615 49.1564C32.3658 49.2574 32.2438 49.3085 32.097 49.3085H31.1752V53.3536C31.1752 53.4821 31.1241 53.5961 31.0244 53.6971C30.9235 53.7981 30.8041 53.8492 30.6665 53.8492H29.7867C29.6582 53.8492 29.5441 53.7994 29.4418 53.6971C29.3395 53.5948 29.291 53.4821 29.291 53.3536V43.4737C29.291 43.336 29.3422 43.2167 29.4418 43.117C29.5428 43.016 29.6568 42.9662 29.7867 42.9662H32.5926C32.7395 42.9662 32.8614 43.016 32.9571 43.117C33.0529 43.218 33.1014 43.3373 33.1014 43.4737V44.2578V44.2591Z" fill="#FFCC00"/>
<path d="M35.7969 53.3536C35.7969 53.4821 35.7484 53.5961 35.6526 53.6971C35.5569 53.7981 35.435 53.8492 35.2881 53.8492H34.4214C34.2837 53.8492 34.167 53.7994 34.07 53.6971C33.9743 53.5961 33.9258 53.4821 33.9258 53.3536V43.4737C33.9258 43.336 33.9743 43.2167 34.07 43.117C34.1657 43.016 34.2837 42.9662 34.4214 42.9662H35.2881C35.435 42.9662 35.5556 43.016 35.6526 43.117C35.7497 43.218 35.7969 43.3373 35.7969 43.4737V53.3536Z" fill="#FFCC00"/>
<path d="M41.1367 44.3417C41.1367 44.4702 41.0882 44.5842 40.9925 44.6852C40.8968 44.7862 40.7748 44.836 40.628 44.836H39.8439V53.3536C39.8439 53.4821 39.794 53.5961 39.6931 53.6971C39.5921 53.7981 39.478 53.8492 39.3495 53.8492H38.4684C38.3216 53.8492 38.1996 53.7994 38.1039 53.6971C38.0082 53.5961 37.9597 53.4821 37.9597 53.3536V44.836H37.1205C36.9736 44.836 36.8504 44.7862 36.7494 44.6852C36.6485 44.5842 36.5986 44.4702 36.5986 44.3417V43.475C36.5986 43.3373 36.6485 43.218 36.7494 43.1183C36.8504 43.0174 36.9736 42.9675 37.1205 42.9675H40.6293C40.7761 42.9675 40.8981 43.0174 40.9938 43.1183C41.0895 43.2193 41.138 43.3386 41.138 43.475V44.3417H41.1367Z" fill="#FFCC00"/>
<path d="M46.2391 51.868C46.2391 52.2168 46.1801 52.5144 46.0594 52.7622C45.9401 53.01 45.7841 53.2146 45.5927 53.3745C45.3999 53.5358 45.1836 53.6538 44.9462 53.7325C44.7076 53.8112 44.4742 53.8492 44.2447 53.8492H42.3605C42.232 53.8492 42.1167 53.7994 42.017 53.6971C41.916 53.5961 41.8662 53.4821 41.8662 53.3536V43.4737C41.8662 43.336 41.916 43.2167 42.017 43.117C42.118 43.016 42.232 42.9662 42.3605 42.9662H44.2447C44.4742 42.9662 44.7076 43.0056 44.9462 43.0829C45.1849 43.1616 45.3999 43.2809 45.5927 43.4409C45.7854 43.6022 45.9414 43.808 46.0594 44.0598C46.1788 44.3128 46.2391 44.6078 46.2391 44.9474V47.1345C46.2391 47.6393 45.986 48.038 45.4825 48.3317C45.9873 48.5978 46.2391 48.9978 46.2391 49.5288V51.868ZM44.4912 45.3461C44.4912 45.1808 44.4545 45.0655 44.3811 45.0012C44.3077 44.937 44.2106 44.9055 44.0926 44.9055H43.7491V47.3823H44.0926C44.3588 47.3823 44.4912 47.2447 44.4912 46.9693V45.3461ZM44.4912 49.736C44.4912 49.5983 44.4545 49.4921 44.3811 49.4186C44.3077 49.3452 44.2106 49.3085 44.0926 49.3085H43.7491V51.9362H44.0926C44.212 51.9362 44.3077 51.8994 44.3811 51.826C44.4545 51.7526 44.4912 51.6464 44.4912 51.51V49.7346V49.736Z" fill="#FFCC00"/>
<path d="M51.7299 51.7159C51.7299 51.9821 51.6695 52.2522 51.5502 52.5275C51.4309 52.8029 51.2644 53.0507 51.0533 53.271C50.8422 53.4912 50.5983 53.6669 50.3216 53.8007C50.0463 53.9344 49.7421 54 49.4103 54C49.0786 54 48.7757 53.9331 48.4991 53.8007C48.2237 53.6669 47.9811 53.4912 47.774 53.271C47.5668 53.0507 47.4016 52.8029 47.277 52.5275C47.1524 52.2522 47.0908 51.9821 47.0908 51.7159V45.0982C47.0908 44.8321 47.1524 44.5606 47.277 44.2866C47.4016 44.0113 47.5668 43.7661 47.774 43.551C47.9811 43.336 48.2224 43.1642 48.4991 43.0357C48.7744 42.9072 49.0786 42.843 49.4103 42.843C49.7421 42.843 50.045 42.9072 50.3216 43.0357C50.5983 43.1642 50.8409 43.336 51.0533 43.551C51.2644 43.7661 51.4309 44.0113 51.5502 44.2866C51.6695 44.562 51.7299 44.8321 51.7299 45.0982V51.7159ZM49.8588 45.0301C49.8588 44.9199 49.8181 44.8373 49.7355 44.7822C49.6529 44.7272 49.5428 44.6996 49.4051 44.6996C49.2766 44.6996 49.1717 44.7272 49.0878 44.7822C49.0052 44.8373 48.9645 44.9199 48.9645 45.0301V51.8116C48.9645 51.9126 49.0052 51.9912 49.0878 52.0463C49.1704 52.1014 49.2753 52.1289 49.4051 52.1289C49.5428 52.1289 49.6529 52.1014 49.7355 52.0463C49.8181 51.9912 49.8588 51.9126 49.8588 51.8116V45.0301Z" fill="#FFCC00"/>
<path d="M56.5737 42.9649C56.7114 42.9649 56.8281 43.0174 56.9251 43.1222C57.0208 43.2285 57.0693 43.3452 57.0693 43.4737V43.6244L55.7621 48.1376L57.0143 53.2146C57.0234 53.2513 57.0274 53.2972 57.0274 53.3523C57.0274 53.4807 56.9815 53.5948 56.8897 53.6958C56.7979 53.7967 56.6786 53.8479 56.5317 53.8479H55.7752C55.6467 53.8479 55.5392 53.8112 55.4513 53.7377C55.3635 53.6643 55.3071 53.5673 55.2795 53.448L54.7564 50.9855H54.6331L54.0418 53.4624C54.0142 53.5725 53.9539 53.6643 53.8621 53.7377C53.7703 53.8112 53.6654 53.8479 53.5461 53.8479H52.8853C52.7476 53.8479 52.6309 53.7954 52.5339 53.6892C52.4382 53.583 52.3896 53.4716 52.3896 53.3523C52.3896 53.3155 52.3936 53.2657 52.4028 53.2015L53.71 48.3998L52.4854 43.6113C52.4762 43.5759 52.4723 43.5287 52.4723 43.4737C52.4723 43.3452 52.5208 43.2285 52.6165 43.1222C52.7122 43.0174 52.8341 42.9649 52.981 42.9649H53.71C53.8293 42.9649 53.9369 43.0042 54.0339 43.0816C54.1296 43.1603 54.1873 43.2586 54.2057 43.3779L54.7144 45.8404H54.8377L55.4159 43.3504C55.4618 43.2403 55.526 43.1485 55.6087 43.075C55.6913 43.0016 55.7922 42.9649 55.9115 42.9649H56.5724H56.5737Z" fill="#FFCC00"/>
<path d="M60.0273 53.3536C60.0273 53.4821 59.9788 53.5961 59.8831 53.6971C59.7874 53.7981 59.6654 53.8492 59.5186 53.8492H58.6519C58.5142 53.8492 58.3975 53.7994 58.3005 53.6971C58.2048 53.5961 58.1562 53.4821 58.1562 53.3536V43.4737C58.1562 43.336 58.2048 43.2167 58.3005 43.117C58.3975 43.016 58.5142 42.9662 58.6519 42.9662H59.5186C59.6654 42.9662 59.7874 43.016 59.8831 43.117C59.9801 43.218 60.0273 43.3373 60.0273 43.4737V53.3536Z" fill="#FFCC00"/>
<path d="M66.1353 53.3536C66.1353 53.4821 66.0842 53.5961 65.9832 53.6971C65.8823 53.7981 65.759 53.8492 65.6122 53.8492H64.8556C64.7363 53.8492 64.6353 53.8164 64.5527 53.7535C64.4701 53.6892 64.4059 53.6014 64.36 53.4926L62.8049 48.333H62.6947V53.3549C62.6947 53.4834 62.6436 53.5974 62.5426 53.6984C62.4417 53.7994 62.3224 53.8505 62.186 53.8505H61.6353C61.5068 53.8505 61.3914 53.8007 61.2904 53.6984C61.1895 53.5974 61.1396 53.4834 61.1396 53.3549V43.475C61.1396 43.3373 61.1895 43.218 61.2904 43.1183C61.3914 43.0174 61.5055 42.9675 61.6353 42.9675H62.46C62.5793 42.9675 62.6803 43.0016 62.7629 43.0698C62.8455 43.138 62.9058 43.2324 62.9426 43.3517L64.4557 48.6214H64.5658V43.475C64.5658 43.3373 64.6143 43.218 64.7101 43.1183C64.8071 43.0174 64.9238 42.9675 65.0615 42.9675H65.6122C65.759 42.9675 65.8823 43.0174 65.9832 43.1183C66.0842 43.2193 66.1353 43.3386 66.1353 43.475V53.3549V53.3536Z" fill="#FFCC00"/>
<path d="M71.7216 53.3536C71.7216 53.4821 71.6704 53.5961 71.5695 53.6971C71.4685 53.7981 71.3452 53.8492 71.1984 53.8492H70.8404C70.7119 53.8492 70.6202 53.7941 70.5651 53.684L70.4549 53.4637H70.3448C70.2255 53.5922 70.0524 53.7142 69.8282 53.8282C69.604 53.9423 69.368 54 69.1201 54C68.8173 54 68.538 53.9449 68.281 53.8348C68.024 53.7246 67.8063 53.5725 67.628 53.3811C67.4484 53.1884 67.3094 52.9615 67.2084 52.7006C67.1074 52.4397 67.0576 52.1578 67.0576 51.8549V44.9619C67.0576 44.6865 67.1153 44.423 67.2294 44.1699C67.3435 43.9182 67.506 43.6913 67.7172 43.4894C67.9283 43.2875 68.1734 43.1301 68.4527 43.0147C68.732 42.9007 69.0323 42.843 69.3535 42.843C69.6748 42.843 69.975 42.9007 70.2543 43.0147C70.5336 43.1301 70.7788 43.2875 70.9899 43.4894C71.201 43.6913 71.3636 43.9182 71.4777 44.1699C71.5918 44.423 71.6494 44.6865 71.6494 44.9619V46.4199C71.6494 46.5668 71.5983 46.6861 71.4987 46.7779C71.3977 46.8697 71.2836 46.9156 71.1538 46.9156H70.2871C70.1586 46.9156 70.0445 46.8697 69.9423 46.7779C69.8413 46.6861 69.7915 46.5668 69.7915 46.4199V45.0301C69.7915 44.9199 69.7508 44.8373 69.6695 44.7822C69.5882 44.7272 69.4847 44.6996 69.3575 44.6996C69.2303 44.6996 69.128 44.7272 69.0467 44.7822C68.9654 44.8373 68.9248 44.9199 68.9248 45.0301V51.9506C68.9248 52.0424 68.9654 52.121 69.0467 52.184C69.128 52.2482 69.2316 52.2797 69.3575 52.2797C69.4833 52.2797 69.5882 52.2482 69.6695 52.184C69.7508 52.1197 69.7915 52.0424 69.7915 51.9506V50.1201H69.7089C69.6263 50.1201 69.5555 50.0861 69.4951 50.0166C69.4361 49.9484 69.406 49.8776 69.406 49.8028V49.0463C69.406 48.8994 69.4545 48.7788 69.5502 48.6818C69.6459 48.586 69.7639 48.5375 69.9016 48.5375H71.1945C71.3413 48.5375 71.4646 48.5847 71.5655 48.6818C71.6665 48.7788 71.7176 48.8994 71.7176 49.0463V53.3536H71.7216Z" fill="#FFCC00"/>
<path d="M79.7676 44.3915L80.869 47.2539L83.9319 47.4165L81.5495 49.3479L82.3415 52.3112L79.7676 50.642L77.195 52.3112L77.987 49.3479L75.6045 47.4165L78.6675 47.2539L79.7676 44.3915Z" fill="#FFCC00"/>
<path d="M21.2431 44.3915L22.3446 47.2539L25.4062 47.4165L23.0251 49.3479L23.817 52.3112L21.2431 50.642L18.6706 52.3112L19.4625 49.3479L17.0801 47.4165L20.143 47.2539L21.2431 44.3915Z" fill="#FFCC00"/>
</svg>
