<svg id="Capa_1" data-name="Capa 1" xmlns="http://www.w3.org/2000/svg" xmlns:xlink="http://www.w3.org/1999/xlink" viewBox="0 0 700 154.57"><defs><style>.cls-1{fill:#fff;}.cls-2{fill:url(#Degradado_sin_nombre);}.cls-3{fill:url(#Degradado_sin_nombre_2);}</style><linearGradient id="Degradado_sin_nombre" x1="198.99" y1="50.69" x2="214.88" y2="66.57" gradientTransform="matrix(1, 0, 0, -1, 0, 156)" gradientUnits="userSpaceOnUse"><stop offset="0" stop-color="#d1a64e"/><stop offset="0.11" stop-color="#d9b160"/><stop offset="0.37" stop-color="#e7c583"/><stop offset="0.61" stop-color="#f1d39c"/><stop offset="0.82" stop-color="#f8dcab"/><stop offset="1" stop-color="#fadfb0"/></linearGradient><linearGradient id="Degradado_sin_nombre_2" x1="41.44" y1="47.16" x2="104.57" y2="110.28" xlink:href="#Degradado_sin_nombre"/></defs><title>logo lola escalante blanco</title><path class="cls-1" d="M170.15,62.88h2.13V89.53h16.8v2H170.15Z"/><path class="cls-1" d="M192.55,77.26v-.08c0-7.8,5.76-14.79,14.43-14.79s14.34,6.9,14.34,14.71v.08c0,7.81-5.76,14.8-14.43,14.8S192.55,85.07,192.55,77.26Zm26.56,0v-.08c0-7.07-5.15-12.87-12.22-12.87S194.75,70,194.75,77.1v.08c0,7.07,5.15,12.88,12.23,12.88S219.11,84.34,219.11,77.26Z"/><polygon class="cls-1" points="261.16 62.67 259.28 62.67 247.55 89.53 230.68 89.53 230.68 62.88 228.55 62.88 228.55 91.49 246.69 91.49 247.47 91.49 248.94 91.49 260.18 65.17 271.38 91.49 273.75 91.49 261.16 62.67"/><path class="cls-2" d="M222.82,97.37l-2.26-2.26a19.25,19.25,0,0,1-27.22,0l0,0-2.26,2.26a22.44,22.44,0,0,0,31.73,0l0,0Z"/><path class="cls-1" d="M288.8,62.88h20.35v2H290.93v11.2h16.39v2H290.93V89.53h18.43v2H288.8Z"/><path class="cls-1" d="M314.34,87.32l1.39-1.6c3.15,2.91,6,4.26,10.26,4.26s7.23-2.42,7.23-5.69v-.08c0-3-1.59-4.78-8.09-6.09-6.87-1.39-9.65-3.72-9.65-8.05V70c0-4.25,3.89-7.52,9.2-7.52A14.27,14.27,0,0,1,334.49,66l-1.35,1.68a12.3,12.3,0,0,0-8.54-3.23c-4.21,0-7,2.41-7,5.4v.08c0,3,1.55,4.86,8.34,6.25,6.62,1.35,9.4,3.72,9.4,7.89v.08c0,4.62-4,7.81-9.48,7.81A16.3,16.3,0,0,1,314.34,87.32Z"/><path class="cls-1" d="M341.07,77.26v-.08c0-8.09,6-14.79,14.3-14.79,5.11,0,8.17,1.88,11.12,4.57L365,68.52a13.15,13.15,0,0,0-9.65-4.21c-6.87,0-12.06,5.6-12.06,12.79v.08c0,7.24,5.27,12.88,12.1,12.88,4.13,0,6.95-1.6,9.85-4.46l1.41,1.4c-3,3-6.29,5-11.36,5C347.11,92,341.07,85.48,341.07,77.26Z"/><path class="cls-1" d="M397.09,91.69h-2.37L383.53,65.37,372.29,91.69H370l12.59-28.81h1.88Z"/><polygon class="cls-1" points="435.75 62.67 433.87 62.67 422.14 89.53 405.26 89.53 405.26 62.88 403.14 62.88 403.14 91.49 421.28 91.49 422.06 91.49 423.53 91.49 434.77 65.17 445.97 91.49 448.34 91.49 435.75 62.67"/><path class="cls-1" d="M454.38,62.88h2l19.75,24.89V62.88h2V91.49h-1.6L456.42,66.07V91.49h-2Z"/><path class="cls-1" d="M494.59,64.84h-10v-2h22.07v2h-10V91.49h-2.13Z"/><path class="cls-1" d="M513.14,62.88H533.5v2H515.27v11.2h16.39v2H515.27V89.53H533.7v2H513.14Z"/><rect class="cls-1" x="556.08" y="38.48" width="1.4" height="77.61"/><path class="cls-3" d="M16,77.28H9.89V14.17H73v6.11H16Zm120.12,0H130v57H73v6.11h63.12ZM103.37,73.6l-4.32-4.32a36.8,36.8,0,0,1-52,0l0,0L42.65,73.6a42.9,42.9,0,0,0,60.67.05Z"/><path class="cls-1" d="M578.06,72h10.81V70.64H578.74V64.73h7.42V63.38h-7.42V57.47h10.13V56.11H578.06a.67.67,0,0,0-.68.64V71.32A.67.67,0,0,0,578,72Z"/><path class="cls-1" d="M606,67.69c0-2.32-2.72-3.35-5.36-4.34-2.12-.79-4.3-1.61-4.3-2.93,0-1.62,1.76-3,3.92-3s3.92,1.33,3.92,3v.68h1.36v-.68c0-2.37-2.37-4.31-5.28-4.31S595,58.05,595,60.43s2.72,3.3,5.33,4.28c2.13.79,4.34,1.61,4.34,3,0,1.57-2,3-4.39,3s-4.38-1.35-4.38-3V67h-1.36v.68c0,2.38,2.57,4.31,5.74,4.31S606,70,606,67.69Z"/><polygon class="cls-1" points="616.36 72 617.72 72 617.72 57.47 623.2 57.47 623.2 56.11 610.84 56.11 610.84 57.47 616.36 57.47 616.36 72"/><path class="cls-1" d="M640.37,66.79V56.86l.07-.73H639V66.79a4.42,4.42,0,0,1-8.77,0V56.86l.07-.73h-1.45V66.79a5.77,5.77,0,0,0,11.49,0Z"/><path class="cls-1" d="M658.46,69.66a7.63,7.63,0,0,0,1.71-5.56,7.7,7.7,0,0,0-1.72-5.65A6.41,6.41,0,0,0,654,56.11h-5.5a.67.67,0,0,0-.68.64V71.32a.67.67,0,0,0,.64.68h5.6A6.44,6.44,0,0,0,658.46,69.66Zm-9.29,1V57.47H654c3,.26,5.16,3.19,4.87,6.52v.13c.29,3.33-1.9,6.26-4.83,6.52Z"/><rect class="cls-1" x="667.42" y="56.11" width="1.36" height="15.89"/><path class="cls-1" d="M683.05,56.11c-3.9,0-7.07,3.57-7.07,8S679.15,72,683.05,72s7.06-3.56,7.06-7.94S686.94,56.11,683.05,56.11Zm0,14.53c-3.15,0-5.71-3-5.71-6.58s2.56-6.59,5.71-6.59,5.7,3,5.7,6.59S686.19,70.64,683.05,70.64Z"/><path class="cls-1" d="M583.56,82.52h-5.5a.67.67,0,0,0-.68.64V97.73a.67.67,0,0,0,.64.68h5.6A6.42,6.42,0,0,0,588,96.07a7.62,7.62,0,0,0,1.72-5.56A7.7,7.7,0,0,0,588,84.86,6.39,6.39,0,0,0,583.56,82.52Zm4.83,8c.29,3.33-1.9,6.26-4.83,6.52h-4.82V83.88h4.79c3,.26,5.15,3.19,4.86,6.52v.13Z"/><path class="cls-1" d="M596.75,83.2V97.73a.67.67,0,0,0,.64.68h10.84V97.05H598.11V91.14h7.42V89.79h-7.42V83.88h10.12V82.52h-10.8a.67.67,0,0,0-.68.64Z"/><path class="cls-1" d="M625.79,95.64,616.47,82.8a.68.68,0,0,0-.73-.24l-.06-.09v.11a.66.66,0,0,0-.44.62V98.41h1.35V85.3l9.32,12.83a.67.67,0,0,0,.73.24l.06.09v-.11a.67.67,0,0,0,.44-.62V82.52h-1.35Z"/><polygon class="cls-1" points="633.28 83.88 638.81 83.88 638.81 98.41 640.17 98.41 640.17 83.88 645.65 83.88 645.65 82.52 633.28 82.52 633.28 83.88"/><path class="cls-1" d="M671.62,82.52h-1.36V97.73a.67.67,0,0,0,.64.68h9V97.05h-8.36Z"/><path class="cls-1" d="M660.7,89.79l-3-6.86a.71.71,0,0,0-1-.26.65.65,0,0,0-.26.26l-3,6.86-.59,1.35-2.78,6.32-.41,1h1.51l3.18-7.27h5.47l3,6.83.15.44h1.51l-3.19-7.27Zm-5.76,0,2.13-4.9,2.16,4.9Z"/></svg>